# xmcd CD database file
#
# Track frame offsets:
#	150
#	13592
#	27645
#	40553
#	52586
#	65420
#	78934
#	90812
#	103708
#	117282
#	129393
#	142631
#	155979
#	168896
#	182252
#	194494
#	207421
#	220762
#	233603
#	247140
#	261483
#
# Disc length: 3680 seconds
#
# Revision: 1
# Processed by: cddbd v1.5.2PL0 Copyright (c) Steve Scherf et al.
# Submitted via: CDex 1.70beta2
#
DISCID=120e5e15
DTITLE=Lester Young - Giants of Jazz Disc 1
DYEAR=1900
DGENRE=Jazz
TTITLE0=Shoe Shine Boy: Jones‑Smith Incorporated
TTITLE1=Lady Be Good: Jones Smith Incorporated
TTITLE2=He Ain't Got Rhythm: Teddy Wilson and His Orchestra 
TTITLE3=I've Found a New Baby: Teddy Wilson and His Orchestra 
TTITLE4=A Sailboat in the Moonlight: Billie Holiday and Her Orchestra 
TTITLE5=Time Out: Count Basie and His Orchestra
TTITLE6=Georgianna: Count Basie and His Orchestra
TTITLE7=When You're Smiling: Teddy Wilson and His Orchestra 
TTITLE8=When You're Smiling: Teddy Wilson and His Orchestra 
TTITLE9=Back in Your Own Back Yard: Billie Holiday and Her Orchestra 
TTITLE10=Way Down Yonder in New Orleans: Kansas City Six 
TTITLE11=Them There Eyes: Kansas City Six
TTITLE12=I Want a Little Girl: Kansas City Six
TTITLE13=I Want a Little Girl: Kansas City Six
TTITLE14=Dark Rapture: Count Basie and His Orchestra
TTITLE15=Jive at Five: Count Basie and His Orchestra
TTITLE16=I Ain't Got Nobody: Basie's Bad Boys
TTITLE17=Taxi War Dance: Count Basie and His Orchestra
TTITLE18=Upright Organ Blues: Glenn Hardman and His Hammond Five 
TTITLE19=Dickie's Dream: Count Basie's Kansas City Seven 
TTITLE20=Lester Leaps In: Count Basie's Kansas City Seven
EXTD=
EXTT0=
EXTT1=
EXTT2=
EXTT3=
EXTT4=
EXTT5=
EXTT6=
EXTT7=
EXTT8=
EXTT9=
EXTT10=
EXTT11=
EXTT12=
EXTT13=
EXTT14=
EXTT15=
EXTT16=
EXTT17=
EXTT18=
EXTT19=
EXTT20=
PLAYORDER=
